# xmcd
#
# Track frame offsets:
#	150
#	15705
#	35335
#	57173
#	76385
#	93347
#	111724
#	127578
#	146104
#	163293
#	175180
#	188529
#
# Disc length: 2709 seconds
#
# Revision: 0
# Processed by: cddbd v1.5.1PL0 Copyright (c) Steve Scherf et al.
# Submitted via: dBpowerAMP V4.0
#
DISCID=9b0a930c
DTITLE=Drew Weyland - Wavedancer Memories
DYEAR=2004
DGENRE=Acoustic
TTITLE0=The Wavedancer Song
TTITLE1=Ballad of Easy Rider
TTITLE2=Tenterfield Saddler
TTITLE3=Reckless
TTITLE4=A Pirate Looks at 40
TTITLE5=Time After Time
TTITLE6=Under the Waterline
TTITLE7=Cool Change
TTITLE8=This is Australian
TTITLE9=Distant
TTITLE10=Big Yellow Taxi
TTITLE11=Waltzing Matilda
EXTD=
EXTT0=
EXTT1=
EXTT2=
EXTT3=
EXTT4=
EXTT5=
EXTT6=
EXTT7=
EXTT8=
EXTT9=
EXTT10=
EXTT11=
PLAYORDER=
